HIERARCHY
ROOT Hips
{
	OFFSET 0.000000 0.000000 0.000000
	CHANNELS 6 Xposition Yposition Zposition Xrotation Yrotation Zrotation
	JOINT LeftUpLeg_virtual
	{
		OFFSET 0.000000 0.000000 0.000000
		CHANNELS 3 Xrotation Yrotation Zrotation
		JOINT LeftUpLeg
		{
			OFFSET 13.026900 -6.336304 -1.092800
			CHANNELS 3 Xrotation Yrotation Zrotation
			JOINT LeftLeg
			{
				OFFSET 0.524474 -46.096886 9.782700
				CHANNELS 3 Xrotation Yrotation Zrotation
				JOINT LeftFoot
				{
					OFFSET -0.524474 -53.427422 -12.948200
					CHANNELS 3 Xrotation Yrotation Zrotation
					JOINT LeftToeBase
					{
						OFFSET 0.192200 -14.009700 16.364100
						CHANNELS 3 Xrotation Yrotation Zrotation
						JOINT LeftToe_End
						{
							OFFSET -1.784700 -0.561700 9.474800
							CHANNELS 3 Xrotation Yrotation Zrotation
							End Site
							{
								OFFSET 0 0 0
							}
						}
					}
				}
			}
		}
	}
	JOINT RightUpLeg_virtual
	{
		OFFSET 0.000000 0.000000 0.000000
		CHANNELS 3 Xrotation Yrotation Zrotation
		JOINT RightUpLeg
		{
			OFFSET -12.883000 -6.336304 -1.092800
			CHANNELS 3 Xrotation Yrotation Zrotation
			JOINT RightLeg
			{
				OFFSET -0.524587 -46.096825 9.782800
				CHANNELS 3 Xrotation Yrotation Zrotation
				JOINT RightFoot
				{
					OFFSET 0.524587 -53.427383 -12.948300
					CHANNELS 3 Xrotation Yrotation Zrotation
					JOINT RightToeBase
					{
						OFFSET -0.192200 -14.009700 16.364100
						CHANNELS 3 Xrotation Yrotation Zrotation
						JOINT RightToe_End
						{
							OFFSET 1.784700 -0.561700 9.474800
							CHANNELS 3 Xrotation Yrotation Zrotation
							End Site
							{
								OFFSET 0 0 0
							}
						}
					}
				}
			}
		}
	}
	JOINT Spine_virtual
	{
		OFFSET 0.000000 0.000000 0.000000
		CHANNELS 3 Xrotation Yrotation Zrotation
		JOINT Spine
		{
			OFFSET 0.072000 7.257294 -0.789700
			CHANNELS 3 Xrotation Yrotation Zrotation
			JOINT Spine1
			{
				OFFSET 0.000000 12.508769 -0.658067
				CHANNELS 3 Xrotation Yrotation Zrotation
				JOINT Spine1_split
				{
					OFFSET 0.000000 12.508769 -0.658067
					CHANNELS 3 Xrotation Yrotation Zrotation
					JOINT Spine2
					{
						OFFSET 0.000000 12.508769 -0.658067
						CHANNELS 3 Xrotation Yrotation Zrotation
						JOINT Neck_virtual
						{
							OFFSET 0.000000 0.000000 0.000000
							CHANNELS 3 Xrotation Yrotation Zrotation
							JOINT Neck
							{
								OFFSET 0.000000 14.033295 7.520400
								CHANNELS 3 Xrotation Yrotation Zrotation
								JOINT Head
								{
									OFFSET 0.000000 8.198502 5.703100
									CHANNELS 3 Xrotation Yrotation Zrotation
									JOINT HeadTop_End
									{
										OFFSET 0.000000 17.760803 13.332701
										CHANNELS 3 Xrotation Yrotation Zrotation
										End Site
										{
											OFFSET 0 0 0
										}
									}
								}
							}
						}
						JOINT LeftShoulder_virtual
						{
							OFFSET 0.000000 0.000000 0.000000
							CHANNELS 3 Xrotation Yrotation Zrotation
							JOINT LeftShoulder
							{
								OFFSET 6.292450 5.785301 -0.669000
								CHANNELS 3 Xrotation Yrotation Zrotation
								JOINT LeftShoulder_split
								{
									OFFSET 6.292450 5.785301 -0.669000
									CHANNELS 3 Xrotation Yrotation Zrotation
									JOINT LeftArm
									{
										OFFSET 13.907140 -6.093903 1.965100
										CHANNELS 3 Xrotation Yrotation Zrotation
										JOINT LeftForeArm
										{
											OFFSET 34.140198 0.000000 0.000000
											CHANNELS 3 Xrotation Yrotation Zrotation
											JOINT LeftHand
											{
												OFFSET 40.960209 0.000000 0.000000
												CHANNELS 3 Xrotation Yrotation Zrotation
												End Site
												{
													OFFSET 0 0 0
												}
											}
										}
									}
								}
							}
						}
						JOINT RightShoulder_virtual
						{
							OFFSET 0.000000 0.000000 0.000000
							CHANNELS 3 Xrotation Yrotation Zrotation
							JOINT RightShoulder
							{
								OFFSET -6.292450 5.785301 -0.669000
								CHANNELS 3 Xrotation Yrotation Zrotation
								JOINT RightShoulder_split
								{
									OFFSET -6.292450 5.785301 -0.669000
									CHANNELS 3 Xrotation Yrotation Zrotation
									JOINT RightArm
									{
										OFFSET -13.907140 -6.093903 1.965100
										CHANNELS 3 Xrotation Yrotation Zrotation
										JOINT RightForeArm
										{
											OFFSET -34.140198 0.000000 0.000000
											CHANNELS 3 Xrotation Yrotation Zrotation
											JOINT RightHand
											{
												OFFSET -40.960209 0.000000 0.000000
												CHANNELS 3 Xrotation Yrotation Zrotation
												End Site
												{
													OFFSET 0 0 0
												}
											}
										}
									}
								}
							}
						}
					}
				}
			}
		}
	}
}
MOTION
Frames: 4
Frame Time: 0.03333333
-4.200120 93.471565 1.966125 0.000000 0.000000 0.000000 7.161569 -58.834382 1.524607 -52.419171 -15.918055 31.482237 35.521744 -8.230426 -0.443258 21.834966 0.616268 -6.928035 -0.000008 0.000011 0.000004 0.000000 0.000000 0.000000 7.161569 -58.834382 1.524607 -52.664102 -1.039798 -17.123423 60.326533 1.698932 0.146306 -0.508271 -0.814702 9.973067 -10.353144 -0.000001 -0.000001 0.000000 0.000000 0.000000 7.161569 -58.834382 1.524607 5.121560 10.398752 -0.710309 6.079588 5.798317 -0.521034 0.000000 0.000000 0.000000 0.000000 0.000000 0.000000 5.085127 16.136073 1.189175 6.289645 5.421245 -4.908950 -11.393632 17.889737 5.359089 0.000000 0.000000 0.000000 5.085127 16.136073 1.189175 3.544252 4.756011 -11.623017 0.000000 0.000000 0.000000 -54.038838 -33.116418 -50.381548 -0.000046 -81.882357 -0.000079 0.000000 0.000000 0.000000 5.085127 16.136073 1.189175 -14.733700 2.115969 -4.463089 0.000000 0.000000 0.000000 -107.662469 41.165967 127.346473 0.000005 29.080722 -0.000002 0.000000 0.000000 0.000000 
-4.821692 96.484169 -7.628605 0.000000 0.000000 0.000000 11.044732 -61.447435 3.084225 -59.300303 -15.018005 24.912966 49.765421 -3.101998 -0.209781 9.868671 0.018673 -7.165148 -0.790463 0.000005 0.000005 0.000000 0.000000 0.000000 11.044732 -61.447435 3.084225 -55.700073 -6.463519 -10.130846 56.237408 0.869369 0.087631 6.462599 0.594936 11.180617 -10.527593 0.030300 -1.362108 0.000000 0.000000 0.000000 11.044732 -61.447435 3.084225 5.106828 10.641635 0.953533 6.308407 5.733788 0.124731 0.000000 0.000000 0.000000 0.000000 0.000000 0.000000 5.204268 16.033852 1.859609 6.010205 5.497589 -4.746237 -12.496669 18.583681 4.459509 0.000000 0.000000 0.000000 5.204268 16.033852 1.859609 3.342835 3.885604 -11.068018 0.000000 0.000000 0.000000 -52.875793 -31.812412 -49.380611 -0.000053 -83.745359 -0.000034 0.000000 0.000000 0.000000 5.204268 16.033852 1.859609 -14.973894 4.793936 -4.441298 0.000000 0.000000 0.000000 -102.180764 44.066765 122.304318 -0.000028 35.490052 0.000019 0.000000 0.000000 0.000000 
-5.327479 100.680290 -18.341091 0.000000 0.000000 0.000000 18.408229 -65.667870 8.487175 -63.526210 -9.249368 18.876087 55.185541 -2.184211 -0.049820 5.056692 0.005367 -9.915341 -0.224696 0.000005 -0.000004 0.000000 0.000000 0.000000 18.408229 -65.667870 8.487175 -55.954487 -10.091694 -3.906039 48.862347 2.384275 0.061162 9.437965 2.500813 27.179913 -8.047121 0.187049 -3.211531 0.000000 0.000000 0.000000 18.408229 -65.667870 8.487175 4.830824 11.326548 1.478909 6.102146 6.417217 0.514765 0.000000 0.000000 0.000000 0.000000 0.000000 0.000000 4.918152 16.654300 2.295241 5.970352 5.433351 -4.378252 -13.661104 18.875854 3.950043 0.000000 0.000000 0.000000 4.918152 16.654300 2.295241 3.417883 3.714102 -11.398309 0.000000 0.000000 0.000000 -50.782351 -31.863594 -46.590281 0.000953 -85.111718 0.000906 0.000000 0.000000 0.000000 4.918152 16.654300 2.295241 -15.100660 8.148908 -3.712547 0.000000 0.000000 0.000000 -96.287137 45.640314 117.417167 -0.000010 39.987513 0.000008 0.000000 0.000000 0.000000 
-6.300469 103.414101 -29.182156 0.000000 0.000000 0.000000 26.297917 -69.963069 15.629477 -65.678027 -0.419400 14.413717 54.693395 -4.238878 0.008913 7.828159 -0.335958 -16.095346 1.512193 -0.000006 0.000002 0.000000 0.000000 0.000000 26.297917 -69.963069 15.629477 -53.754624 -10.715063 -0.406149 44.416877 -0.117350 0.084091 8.595209 2.627692 30.651601 -2.479151 0.039459 -1.497119 0.000000 0.000000 0.000000 26.297917 -69.963069 15.629477 4.670727 12.278300 1.578264 5.938460 7.371506 0.634044 0.000000 0.000000 0.000000 0.000000 0.000000 0.000000 4.718941 17.582304 2.448583 6.178255 5.120965 -4.209305 -13.759379 18.080967 3.551957 0.000000 0.000000 0.000000 4.718941 17.582304 2.448583 3.616892 3.702326 -12.152608 0.000000 0.000000 0.000000 -50.517623 -32.346666 -45.002361 0.000618 -84.349203 0.000585 0.000000 0.000000 0.000000 4.718941 17.582304 2.448583 -15.231134 11.787428 -3.124259 0.000000 0.000000 0.000000 -92.063778 46.117099 113.129017 0.000039 41.336001 -0.000029 0.000000 0.000000 0.000000 
